<svg xmlns="http://www.w3.org/2000/svg" width="192" height="192" viewBox="0 0 192 192">
  <defs>
    <linearGradient id="grad" x1="0%" y1="0%" x2="100%" y2="100%">
      <stop offset="0%" style="stop-color:#7c3aed;stop-opacity:1" />
      <stop offset="100%" style="stop-color:#14b8a6;stop-opacity:1" />
    </linearGradient>
  </defs>
  <rect width="192" height="192" rx="38" fill="url(#grad)"/>
  <g transform="translate(96, 96)" fill="none" stroke="white" stroke-width="6" stroke-linecap="round" stroke-linejoin="round">
    <path d="M-40 -20 L-40 28 C-40 28 -20 20 0 28 C20 20 40 28 40 28 L40 -20 C40 -20 20 -12 0 -20 C-20 -12 -40 -20 -40 -20 Z"/>
    <path d="M0 -20 L0 28"/>
  </g>
  <circle cx="140" cy="140" r="24" fill="white"/>
  <g transform="translate(140, 140)" fill="none" stroke="url(#grad)" stroke-width="4" stroke-linecap="round" stroke-linejoin="round">
    <path d="M-8 -4 L8 -4 L8 4 L-8 4 Z" rx="2"/>
    <path d="M-4 8 L0 12 L4 8"/>
  </g>
</svg>