<svg xmlns="http://www.w3.org/2000/svg" width="512" height="512" viewBox="0 0 512 512">
  <defs>
    <linearGradient id="grad" x1="0%" y1="0%" x2="100%" y2="100%">
      <stop offset="0%" style="stop-color:#7c3aed;stop-opacity:1" />
      <stop offset="100%" style="stop-color:#14b8a6;stop-opacity:1" />
    </linearGradient>
  </defs>
  <rect width="512" height="512" rx="102" fill="url(#grad)"/>
  <g transform="translate(256, 256)" fill="none" stroke="white" stroke-width="16" stroke-linecap="round" stroke-linejoin="round">
    <path d="M-106 -53 L-106 75 C-106 75 -53 50 0 75 C53 50 106 75 106 75 L106 -53 C106 -53 53 -28 0 -53 C-53 -28 -106 -53 -106 -53 Z"/>
    <path d="M0 -53 L0 75"/>
  </g>
  <circle cx="380" cy="380" r="64" fill="white"/>
  <g transform="translate(380, 380)" fill="none" stroke="url(#grad)" stroke-width="10" stroke-linecap="round" stroke-linejoin="round">
    <path d="M-20 -10 L20 -10 L20 10 L-20 10 Z"/>
    <path d="M-10 22 L0 32 L10 22"/>
  </g>
</svg>